<svg id="Layer_1" data-name="Layer 1" xmlns="http://www.w3.org/2000/svg" viewBox="0 0 438.41 113.99"><defs><style>.cls-1{fill:#FFFFFF;}.cls-2{fill:#fdc600;}</style></defs><path class="cls-1" d="M173.15,461.71c0-4.65,2.7-7.54,6.66-7.54s6.66,2.89,6.66,7.54-2.68,7.55-6.66,7.55S173.15,466.35,173.15,461.71Zm11.44,0c0-3.71-1.91-5.9-4.78-5.9S175,458,175,461.71s1.9,5.91,4.77,5.91S184.59,465.42,184.59,461.71Z" transform="translate(-78.56 -359.87)"/><path class="cls-1" d="M188.94,454.41h1.76v2.7h0a4.94,4.94,0,0,1,4.82-2.94c3.21,0,5.17,2.06,5.17,5.38V469h-1.85v-9.17c0-2.56-1.41-4-3.85-4s-4.23,1.82-4.23,4.54V469h-1.86Z" transform="translate(-78.56 -359.87)"/><path class="cls-1" d="M215.81,464.88c-.43,2.53-2.81,4.38-6,4.38-4.1,0-6.64-2.87-6.64-7.5s2.57-7.59,6.53-7.59S216,457,216,461.38v.78H205.05v.12c0,3.3,1.87,5.35,4.78,5.35,2.2,0,3.73-1.15,4.14-2.75Zm-10.75-4.19h9c0-2.88-1.79-4.89-4.44-4.89S205.22,457.81,205.06,460.69Z" transform="translate(-78.56 -359.87)"/><path class="cls-1" d="M224.37,454.41h1.76v2.7h0a4.93,4.93,0,0,1,4.82-2.94c3.2,0,5.17,2.06,5.17,5.38V469h-1.85v-9.17c0-2.56-1.41-4-3.85-4s-4.23,1.82-4.23,4.54V469h-1.86Z" transform="translate(-78.56 -359.87)"/><path class="cls-1" d="M251.24,464.88c-.44,2.53-2.81,4.38-6,4.38-4.1,0-6.65-2.87-6.65-7.5s2.57-7.59,6.54-7.59,6.32,2.85,6.32,7.21v.78H240.47v.12c0,3.3,1.87,5.35,4.78,5.35,2.21,0,3.74-1.15,4.15-2.75Zm-10.75-4.19h9c0-2.88-1.8-4.89-4.44-4.89S240.64,457.81,240.49,460.69Z" transform="translate(-78.56 -359.87)"/><path class="cls-1" d="M256.56,450.75v3.66h2.89V456h-2.89v9.39c0,1.5.6,2.15,1.94,2.15a10,10,0,0,0,1-.06V469a12.08,12.08,0,0,1-1.38.09c-2.45,0-3.43-1-3.43-3.69V456h-2.18v-1.54h2.18v-3.66Z" transform="translate(-78.56 -359.87)"/><path class="cls-1" d="M276.15,469h-2l-3.64-12.13h0L266.88,469h-2l-4.16-14.61h1.89l3.27,12.53h0l3.64-12.53h1.89l3.63,12.53h.05l3.27-12.53h1.87Z" transform="translate(-78.56 -359.87)"/><path class="cls-1" d="M281.45,461.71c0-4.65,2.7-7.54,6.66-7.54s6.66,2.89,6.66,7.54-2.68,7.55-6.66,7.55S281.45,466.35,281.45,461.71Zm11.44,0c0-3.71-1.91-5.9-4.78-5.9s-4.76,2.19-4.76,5.9,1.9,5.91,4.76,5.91S292.89,465.42,292.89,461.71Z" transform="translate(-78.56 -359.87)"/><path class="cls-1" d="M297.25,454.41H299V457h.05a3.71,3.71,0,0,1,3.69-2.84,5.37,5.37,0,0,1,1.16.15v1.83a3.85,3.85,0,0,0-1.4-.21c-2.08,0-3.4,1.61-3.4,4V469h-1.85Z" transform="translate(-78.56 -359.87)"/><path class="cls-1" d="M315.11,454.41h2.3l-6.56,6.31,6.69,8.3h-2.18l-5.84-7.16-1.63,1.5V469H306V448.74h1.87v12.58Z" transform="translate(-78.56 -359.87)"/><path class="cls-1" d="M326,456h-2v-1.54h2v-1.86c0-2.64,1.29-3.85,3.74-3.85a9.16,9.16,0,0,1,1.35.11v1.54a5.76,5.76,0,0,0-1.08-.1c-1.41,0-2.15.71-2.15,2.34v1.82H331V456h-3.13V469H326Z" transform="translate(-78.56 -359.87)"/><path class="cls-1" d="M331.83,461.71c0-4.65,2.7-7.54,6.66-7.54s6.66,2.89,6.66,7.54-2.68,7.55-6.66,7.55S331.83,466.35,331.83,461.71Zm11.44,0c0-3.71-1.91-5.9-4.78-5.9s-4.76,2.19-4.76,5.9,1.9,5.91,4.76,5.91S343.27,465.42,343.27,461.71Z" transform="translate(-78.56 -359.87)"/><path class="cls-1" d="M347.63,454.41h1.75V457h.05a3.71,3.71,0,0,1,3.69-2.84,5.17,5.17,0,0,1,1.15.15v1.83a3.74,3.74,0,0,0-1.39-.21c-2.08,0-3.4,1.61-3.4,4V469h-1.85Z" transform="translate(-78.56 -359.87)"/><path class="cls-1" d="M374.69,469H362.45V448.74h12.24v1.75H364.36v7.29h9.81v1.71h-9.81v7.79h10.33Z" transform="translate(-78.56 -359.87)"/><path class="cls-1" d="M389.27,469h-1.76v-2.71h0a5,5,0,0,1-4.85,2.95c-3.18,0-5.16-2.06-5.16-5.35v-9.5h1.87v9.17c0,2.59,1.38,4,3.82,4s4.26-1.78,4.26-4.52v-8.67h1.86Z" transform="translate(-78.56 -359.87)"/><path class="cls-1" d="M392.47,454.41h1.76V457h0a3.71,3.71,0,0,1,3.69-2.84,5.28,5.28,0,0,1,1.16.15v1.83a3.82,3.82,0,0,0-1.39-.21c-2.08,0-3.41,1.61-3.41,4V469h-1.85Z" transform="translate(-78.56 -359.87)"/><path class="cls-1" d="M399.55,461.71c0-4.65,2.7-7.54,6.66-7.54s6.67,2.89,6.67,7.54-2.69,7.55-6.67,7.55S399.55,466.35,399.55,461.71Zm11.44,0c0-3.71-1.91-5.9-4.78-5.9s-4.76,2.19-4.76,5.9,1.9,5.91,4.76,5.91S411,465.42,411,461.71Z" transform="translate(-78.56 -359.87)"/><path class="cls-1" d="M428.42,461.71c0,4.56-2.52,7.55-6.19,7.55a5.23,5.23,0,0,1-5-3.25h-.06v7.85h-1.85V454.41h1.75v3.09h.06a5.34,5.34,0,0,1,5-3.33C425.89,454.17,428.42,457.17,428.42,461.71Zm-1.9,0c0-3.55-1.83-5.9-4.65-5.9s-4.67,2.39-4.67,5.9,1.9,5.91,4.67,5.91S426.52,465.28,426.52,461.71Z" transform="translate(-78.56 -359.87)"/><path class="cls-1" d="M442.85,464.88c-.44,2.53-2.81,4.38-6,4.38-4.1,0-6.65-2.87-6.65-7.5s2.58-7.59,6.54-7.59S443,457,443,461.38v.78H432.08v.12c0,3.3,1.87,5.35,4.78,5.35,2.21,0,3.74-1.15,4.15-2.75Zm-10.75-4.19h9c0-2.88-1.8-4.89-4.44-4.89S432.25,457.81,432.1,460.69Z" transform="translate(-78.56 -359.87)"/><path class="cls-2" d="M454,372.44V363a1.32,1.32,0,0,1,1.43-1.42h60.14A1.31,1.31,0,0,1,517,363v9.4a1.31,1.31,0,0,1-1.42,1.42H455.4A1.32,1.32,0,0,1,454,372.44Zm24.83,13.45a1.38,1.38,0,0,1,1.42-1.42H490.5a1.32,1.32,0,0,1,1.42,1.42v50.86a1.32,1.32,0,0,1-1.42,1.42H480.22a1.38,1.38,0,0,1-1.42-1.42Z" transform="translate(-78.56 -359.87)"/><path class="cls-1" d="M143.24,409.18c-3.72,11.71-14.5,17.51-25.2,17.51-13.34,0-26.58-8.86-26.58-26.8S104.7,373.1,118,373.1c10.7,0,21.48,5.8,25.2,17.51h13.3c-4-20.5-21.25-30.74-38.5-30.74-19.8,0-39.48,13.34-39.48,40s19.68,40,39.48,40c17.25,0,34.5-10.25,38.5-30.74Z" transform="translate(-78.56 -359.87)"/><path class="cls-1" d="M234.72,390.61V363a1.32,1.32,0,0,0-1.42-1.42H223A1.31,1.31,0,0,0,221.6,363v27.57Z" transform="translate(-78.56 -359.87)"/><path class="cls-1" d="M186.18,390.61h17.55l-26.1-28a3.6,3.6,0,0,0-2.29-1H173.7a1.31,1.31,0,0,0-1.42,1.42v11.15a4.23,4.23,0,0,0,1,2.52Z" transform="translate(-78.56 -359.87)"/><path class="cls-1" d="M172.28,409.18v27.57a1.32,1.32,0,0,0,1.42,1.42H184a1.32,1.32,0,0,0,1.42-1.42V409.18Z" transform="translate(-78.56 -359.87)"/><path class="cls-1" d="M203.44,409.18l25.92,27.89a3.31,3.31,0,0,0,2.41,1.1h1.53a1.32,1.32,0,0,0,1.42-1.42V409.18Z" transform="translate(-78.56 -359.87)"/><path class="cls-1" d="M299.46,425.92H267.53a2.87,2.87,0,0,1-3.07-3.06V409.18H251.34v27.57a1.32,1.32,0,0,0,1.42,1.42h46.7a1.32,1.32,0,0,0,1.42-1.42v-9.41A1.32,1.32,0,0,0,299.46,425.92Z" transform="translate(-78.56 -359.87)"/><path class="cls-1" d="M264.46,390.61V376.93a2.88,2.88,0,0,1,3.07-3.07h31.93a1.32,1.32,0,0,0,1.42-1.42V363a1.32,1.32,0,0,0-1.42-1.42h-46.7a1.32,1.32,0,0,0-1.42,1.42v27.57Z" transform="translate(-78.56 -359.87)"/><path class="cls-2" d="M329.21,390.61h17.56l-26.1-28a3.63,3.63,0,0,0-2.3-1h-1.64a1.32,1.32,0,0,0-1.42,1.42v11.15a4.24,4.24,0,0,0,1,2.52Z" transform="translate(-78.56 -359.87)"/><path class="cls-2" d="M377.76,390.61V363a1.32,1.32,0,0,0-1.43-1.42H366.06a1.32,1.32,0,0,0-1.43,1.42v27.57Z" transform="translate(-78.56 -359.87)"/><path class="cls-2" d="M315.31,409.18v27.57a1.32,1.32,0,0,0,1.42,1.42H327a1.33,1.33,0,0,0,1.43-1.42V409.18Z" transform="translate(-78.56 -359.87)"/><path class="cls-2" d="M346.47,409.18l25.93,27.89a3.31,3.31,0,0,0,2.4,1.1h1.53a1.33,1.33,0,0,0,1.43-1.42V409.18Z" transform="translate(-78.56 -359.87)"/><path class="cls-2" d="M407.5,390.61V376.93a2.87,2.87,0,0,1,3.06-3.07h31.93a1.32,1.32,0,0,0,1.43-1.42V363a1.32,1.32,0,0,0-1.43-1.42H395.8a1.31,1.31,0,0,0-1.42,1.42v27.57Z" transform="translate(-78.56 -359.87)"/><path class="cls-2" d="M442.49,425.92H410.56a2.87,2.87,0,0,1-3.06-3.06V409.18H394.38v27.57a1.32,1.32,0,0,0,1.42,1.42h46.69a1.33,1.33,0,0,0,1.43-1.42v-9.41A1.33,1.33,0,0,0,442.49,425.92Z" transform="translate(-78.56 -359.87)"/><path class="cls-2" d="M478.8,399.77H431.5v-3.83H414.7v3.83H287.29v-3.29H270.5v3.29H125.84a7.32,7.32,0,1,0,0,1.22H270.5v3.3h16.79V401H414.7v2.76h16.8V401h47.3Z" transform="translate(-78.56 -359.87)"/></svg>